<svg width="24" height="25" viewBox="0 0 24 25" fill="none" xmlns="http://www.w3.org/2000/svg">
<path d="M3 6.04358V20.0436C3 20.574 3.21071 21.0827 3.58579 21.4578C3.96086 21.8329 4.46957 22.0436 5 22.0436H19C19.5304 22.0436 20.0391 21.8329 20.4142 21.4578C20.7893 21.0827 21 20.574 21 20.0436V6.04358C21 5.51315 20.7893 5.00444 20.4142 4.62937C20.0391 4.25429 19.5304 4.04358 19 4.04358H17V2.04358H15V4.04358H9V2.04358H7V4.04358H5C4.46957 4.04358 3.96086 4.25429 3.58579 4.62937C3.21071 5.00444 3 5.51315 3 6.04358ZM19 20.0436H5V8.04358H19V20.0436Z" fill="#545454"/>
</svg>
