<svg width="32" height="30" viewBox="0 0 32 30" fill="none" xmlns="http://www.w3.org/2000/svg">
<path d="M4 7.5V25C4 25.663 4.28095 26.2989 4.78105 26.7678C5.28115 27.2366 5.95942 27.5 6.66667 27.5H25.3333C26.0406 27.5 26.7189 27.2366 27.219 26.7678C27.719 26.2989 28 25.663 28 25V7.5C28 6.83696 27.719 6.20107 27.219 5.73223C26.7189 5.26339 26.0406 5 25.3333 5H22.6667V2.5H20V5H12V2.5H9.33333V5H6.66667C5.95942 5 5.28115 5.26339 4.78105 5.73223C4.28095 6.20107 4 6.83696 4 7.5ZM25.3333 25H6.66667V10H25.3333V25Z" fill="#545454"/>
</svg>
