<svg width="32" height="33" viewBox="0 0 32 33" fill="none" xmlns="http://www.w3.org/2000/svg">
<path d="M29.2318 3.53735C29.0095 3.14492 28.6544 2.92865 28.2321 2.92865C27.995 2.92865 27.7556 2.99797 27.5571 3.12054C27.4178 3.18639 27.2995 3.26885 27.1958 3.37263C20.8883 9.6778 15.5228 14.9087 9.88014 19.9059L6.91815 16.3098C6.63065 15.9607 6.31027 15.8874 6.09243 15.8874C5.83054 15.8874 5.56252 15.9935 5.35851 16.1702L5.3103 16.1958C3.70571 17.2274 2.20497 18.0932 0.723294 18.8422C0.328412 19.0414 0.0983194 19.3857 0.0876285 19.7914C-0.0953423 20.2398 0.0115666 20.7129 0.377031 21.0621C1.70257 22.3304 2.93515 23.7322 4.12742 25.0881C5.43089 26.5705 6.77835 28.1036 8.25744 29.4733C8.30987 29.5227 8.36762 29.567 8.43238 29.6099C8.65212 29.9037 8.96018 30.0711 9.28179 30.0711C9.51052 30.0711 9.73455 29.9895 9.9481 29.8284C14.0825 26.7091 17.7708 23.1879 20.5225 20.4691C21.3299 19.6706 22.1412 18.8733 22.953 18.0759C25.7964 15.2818 28.7366 12.3924 31.5181 9.45983C31.6702 9.29987 31.7736 9.11438 31.8255 8.90867C32.0689 8.53108 32.0575 8.08772 31.792 7.68698C30.8314 6.24003 29.9936 4.88249 29.2318 3.53735ZM29.2197 8.27171C27.1709 10.4093 25.0239 12.5257 22.9472 14.5738C21.8507 15.6543 20.7549 16.7351 19.6688 17.8223C16.5669 20.9267 13.1781 24.2009 9.40382 27.1356C8.16987 25.9303 7.01028 24.6152 5.88788 23.3424C5.01218 22.3493 4.10849 21.3251 3.17089 20.3534C4.01786 19.8915 4.87735 19.388 5.78798 18.8212L8.86076 22.5515C9.14866 22.9018 9.47007 22.9751 9.68893 22.9751C9.96866 22.9751 10.2487 22.8569 10.4806 22.6425C10.5627 22.5958 10.6364 22.5436 10.7045 22.4841C16.7386 17.1974 22.5326 11.5243 27.9005 6.17092C28.2888 6.81577 28.7225 7.50632 29.2197 8.27171Z" fill="#FC832B"/>
</svg>
