<svg width="24" height="25" viewBox="0 0 24 25" fill="none" xmlns="http://www.w3.org/2000/svg">
<g clip-path="url(#clip0_213_3218)">
<path d="M4.99997 7.55566C4.99997 6.97218 5.23176 6.4126 5.64434 6.00002C6.05692 5.58744 6.6165 5.35566 7.19997 5.35566H8.19997C8.78087 5.35532 9.33806 5.12526 9.74997 4.71566L10.45 4.01566C10.6544 3.81006 10.8975 3.6469 11.1652 3.53556C11.4329 3.42423 11.72 3.36691 12.01 3.36691C12.2999 3.36691 12.587 3.42423 12.8547 3.53556C13.1225 3.6469 13.3655 3.81006 13.57 4.01566L14.27 4.71566C14.682 5.12566 15.24 5.35566 15.82 5.35566H16.82C17.4034 5.35566 17.963 5.58744 18.3756 6.00002C18.7882 6.4126 19.02 6.97218 19.02 7.55566V8.55566C19.02 9.13565 19.25 9.69366 19.66 10.1057L20.36 10.8057C20.5656 11.0101 20.7287 11.2532 20.8401 11.5209C20.9514 11.7886 21.0087 12.0757 21.0087 12.3657C21.0087 12.6556 20.9514 12.9427 20.8401 13.2104C20.7287 13.4781 20.5656 13.7212 20.36 13.9257L19.66 14.6257C19.2504 15.0376 19.0203 15.5948 19.02 16.1757V17.1757C19.02 17.7591 18.7882 18.3187 18.3756 18.7313C17.963 19.1439 17.4034 19.3757 16.82 19.3757H15.82C15.2391 19.376 14.6819 19.6061 14.27 20.0157L13.57 20.7157C13.3655 20.9213 13.1225 21.0844 12.8547 21.1957C12.587 21.3071 12.2999 21.3644 12.01 21.3644C11.72 21.3644 11.4329 21.3071 11.1652 21.1957C10.8975 21.0844 10.6544 20.9213 10.45 20.7157L9.74997 20.0157C9.33806 19.6061 8.78087 19.376 8.19997 19.3757H7.19997C6.6165 19.3757 6.05692 19.1439 5.64434 18.7313C5.23176 18.3187 4.99997 17.7591 4.99997 17.1757V16.1757C4.99964 15.5948 4.76957 15.0376 4.35997 14.6257L3.65997 13.9257C3.45437 13.7212 3.29121 13.4781 3.17988 13.2104C3.06855 12.9427 3.01123 12.6556 3.01123 12.3657C3.01123 12.0757 3.06855 11.7886 3.17988 11.5209C3.29121 11.2532 3.45437 11.0101 3.65997 10.8057L4.35997 10.1057C4.76957 9.69375 4.99964 9.13655 4.99997 8.55566V7.55566Z" stroke="#212121" stroke-width="1.5" stroke-linecap="round" stroke-linejoin="round"/>
<path d="M9 12.3557L11 14.3557L15 10.3557" stroke="#212121" stroke-width="1.5" stroke-linecap="round" stroke-linejoin="round"/>
</g>
<defs>
<clipPath id="clip0_213_3218">
<rect width="24" height="24" fill="white" transform="translate(0 0.355652)"/>
</clipPath>
</defs>
</svg>
