<svg width="24" height="25" viewBox="0 0 24 25" fill="none" xmlns="http://www.w3.org/2000/svg">
<g clip-path="url(#clip0_213_3212)">
<path d="M3 12.3557C3 13.5375 3.23279 14.7079 3.68508 15.7998C4.13738 16.8917 4.80031 17.8839 5.63604 18.7196C6.47177 19.5553 7.46392 20.2183 8.55585 20.6706C9.64778 21.1229 10.8181 21.3557 12 21.3557C13.1819 21.3557 14.3522 21.1229 15.4442 20.6706C16.5361 20.2183 17.5282 19.5553 18.364 18.7196C19.1997 17.8839 19.8626 16.8917 20.3149 15.7998C20.7672 14.7079 21 13.5375 21 12.3557C21 9.9687 20.0518 7.67952 18.364 5.99169C16.6761 4.30386 14.3869 3.35565 12 3.35565C9.61305 3.35565 7.32387 4.30386 5.63604 5.99169C3.94821 7.67952 3 9.9687 3 12.3557Z" stroke="#212121" stroke-width="1.5" stroke-linecap="round" stroke-linejoin="round"/>
<path d="M12 7.35565V12.3557L15 15.3557" stroke="#212121" stroke-width="1.5" stroke-linecap="round" stroke-linejoin="round"/>
</g>
<defs>
<clipPath id="clip0_213_3212">
<rect width="24" height="24" fill="white" transform="translate(0 0.355652)"/>
</clipPath>
</defs>
</svg>
