<svg width="32" height="32" viewBox="0 0 32 32" fill="none" xmlns="http://www.w3.org/2000/svg">
<g clip-path="url(#clip0_201_3092)">
<path d="M10.6665 15.9998C10.6665 17.4143 11.2284 18.7709 12.2286 19.7711C13.2288 20.7713 14.5853 21.3332 15.9998 21.3332C17.4143 21.3332 18.7709 20.7713 19.7711 19.7711C20.7713 18.7709 21.3332 17.4143 21.3332 15.9998C21.3332 14.5853 20.7713 13.2288 19.7711 12.2286C18.7709 11.2284 17.4143 10.6665 15.9998 10.6665C14.5853 10.6665 13.2288 11.2284 12.2286 12.2286C11.2284 13.2288 10.6665 14.5853 10.6665 15.9998Z"  stroke-linecap="round" stroke-linejoin="round" stroke-width="2" />
<path d="M21.3333 15.9998V17.9998C21.3333 18.8839 21.6845 19.7317 22.3096 20.3568C22.9348 20.9819 23.7826 21.3331 24.6667 21.3331C25.5507 21.3331 26.3986 20.9819 27.0237 20.3568C27.6488 19.7317 28 18.8839 28 17.9998V15.9998C28.0033 13.4213 27.176 10.9103 25.6405 8.83872C24.1051 6.76719 21.9432 5.24533 19.4752 4.4986C17.0071 3.75186 14.3642 3.81996 11.9379 4.69281C9.51161 5.56566 7.43099 7.19684 6.00427 9.3447C4.57756 11.4926 3.88063 14.0429 4.01674 16.6178C4.15284 19.1927 5.11474 21.6553 6.75994 23.6408C8.40513 25.6263 10.6461 27.029 13.1509 27.6413C15.6557 28.2535 18.2911 28.0426 20.6667 27.0398"  stroke-linecap="round" stroke-linejoin="round" stroke-width="2" />
</g>
<defs>
<clipPath id="clip0_201_3092">
<rect width="32" height="32" />
</clipPath>
</defs>
</svg>
