<svg width="24" height="25" viewBox="0 0 24 25" fill="none" xmlns="http://www.w3.org/2000/svg">
<path d="M6 6.04358C7.10457 6.04358 8 5.14815 8 4.04358C8 2.93901 7.10457 2.04358 6 2.04358C4.89543 2.04358 4 2.93901 4 4.04358C4 5.14815 4.89543 6.04358 6 6.04358Z" fill="#545454"/>
<path d="M9 7.04358H3C2.73478 7.04358 2.48043 7.14894 2.29289 7.33647C2.10536 7.52401 2 7.77836 2 8.04358V15.0436H4V22.0436H8V15.0436H10V8.04358C10 7.77836 9.89464 7.52401 9.70711 7.33647C9.51957 7.14894 9.26522 7.04358 9 7.04358Z" fill="#545454"/>
<path d="M17 6.04358C18.1046 6.04358 19 5.14815 19 4.04358C19 2.93901 18.1046 2.04358 17 2.04358C15.8954 2.04358 15 2.93901 15 4.04358C15 5.14815 15.8954 6.04358 17 6.04358Z" fill="#545454"/>
<path d="M20.21 7.77359C20.1495 7.55729 20.018 7.36765 19.8366 7.23522C19.6552 7.10279 19.4344 7.03529 19.21 7.04359H14.71C14.4856 7.03529 14.2648 7.10279 14.0834 7.23522C13.902 7.36765 13.7705 7.55729 13.71 7.77359L12 14.0436H14L13 18.0436H15V22.0436H19V18.0436H21L20 14.0436H22L20.21 7.77359Z" fill="#545454"/>
</svg>
