<svg width="24" height="30" viewBox="0 0 24 30" fill="none" xmlns="http://www.w3.org/2000/svg">
<path d="M6 7.50059C7.10457 7.50059 8 6.38121 8 5.00039C8 3.61956 7.10457 2.50018 6 2.50018C4.89543 2.50018 4 3.61956 4 5.00039C4 6.38121 4.89543 7.50059 6 7.50059Z" fill="#545454"/>
<path d="M9 8.75073H3C2.73478 8.75073 2.48043 8.88244 2.29289 9.11688C2.10536 9.35132 2 9.66929 2 10.0008V18.7516H4V27.5023H8V18.7516H10V10.0008C10 9.66929 9.89464 9.35132 9.70711 9.11688C9.51957 8.88244 9.26522 8.75073 9 8.75073Z" fill="#545454"/>
<path d="M17 7.50059C18.1046 7.50059 19 6.38121 19 5.00039C19 3.61956 18.1046 2.50018 17 2.50018C15.8954 2.50018 15 3.61956 15 5.00039C15 6.38121 15.8954 7.50059 17 7.50059Z" fill="#545454"/>
<path d="M20.21 9.66331C20.1495 9.39291 20.018 9.15584 19.8366 8.99029C19.6552 8.82474 19.4344 8.74036 19.21 8.75073H14.71C14.4856 8.74036 14.2648 8.82474 14.0834 8.99029C13.902 9.15584 13.7705 9.39291 13.71 9.66331L12 17.5015H14L13 22.5019H15V27.5023H19V22.5019H21L20 17.5015H22L20.21 9.66331Z" fill="#545454"/>
</svg>
