<svg width="24" height="24" viewBox="0 0 24 24" fill="none" xmlns="http://www.w3.org/2000/svg">
<g clip-path="url(#clip0_348_630)">
<path d="M9 13C9 13.7956 9.31607 14.5587 9.87868 15.1213C10.4413 15.6839 11.2044 16 12 16C12.7956 16 13.5587 15.6839 14.1213 15.1213C14.6839 14.5587 15 13.7956 15 13C15 12.2044 14.6839 11.4413 14.1213 10.8787C13.5587 10.3161 12.7956 10 12 10C11.2044 10 10.4413 10.3161 9.87868 10.8787C9.31607 11.4413 9 12.2044 9 13Z" stroke="black" stroke-width="1.5" stroke-linecap="round" stroke-linejoin="round"/>
<path d="M14.1668 10.5C14.8888 8.962 15.3228 7.457 15.4698 5.986C15.6898 4.356 14.7078 3 11.9998 3C9.29181 3 8.30981 4.357 8.52981 5.986C8.67681 7.457 9.11081 8.962 9.83281 10.5" stroke="black" stroke-width="1.5" stroke-linecap="round" stroke-linejoin="round"/>
<path d="M13.1689 16.751C14.1389 18.146 15.2259 19.274 16.4259 20.137C17.7259 21.137 19.3929 20.97 20.7469 18.625C22.1009 16.28 21.4169 14.751 19.8969 14.127C18.5489 13.519 17.0289 13.142 15.3349 12.999" stroke="black" stroke-width="1.5" stroke-linecap="round" stroke-linejoin="round"/>
<path d="M8.66416 13C6.97116 13.143 5.45116 13.52 4.10416 14.128C2.58216 14.751 1.89816 16.281 3.25216 18.626C4.60616 20.971 6.27216 21.143 7.57316 20.138C8.77316 19.275 9.86016 18.147 10.8312 16.752" stroke="black" stroke-width="1.5" stroke-linecap="round" stroke-linejoin="round"/>
</g>
<defs>
<clipPath id="clip0_348_630">
<rect width="24" height="24" fill="white"/>
</clipPath>
</defs>
</svg>
