<svg width="24" height="25" viewBox="0 0 24 25" fill="none" xmlns="http://www.w3.org/2000/svg">
<g clip-path="url(#clip0_213_3243)">
<path d="M8.24277 7.57448L1.86277 8.49948L1.74977 8.52248C1.57871 8.56789 1.42276 8.65789 1.29786 8.78328C1.17296 8.90867 1.08357 9.06497 1.03883 9.23621C0.994087 9.40744 0.995593 9.58749 1.04319 9.75795C1.09079 9.92842 1.18278 10.0832 1.30977 10.2065L5.93177 14.7055L4.84177 21.0605L4.82877 21.1705C4.81829 21.3474 4.85503 21.5239 4.93522 21.682C5.0154 21.84 5.13615 21.9739 5.2851 22.07C5.43405 22.166 5.60585 22.2208 5.78291 22.2286C5.95997 22.2364 6.13593 22.197 6.29277 22.1145L11.9988 19.1145L17.6918 22.1145L17.7918 22.1605C17.9568 22.2255 18.1362 22.2454 18.3115 22.2182C18.4868 22.191 18.6517 22.1177 18.7894 22.0057C18.927 21.8938 19.0323 21.7472 19.0946 21.5811C19.1569 21.415 19.1738 21.2353 19.1438 21.0605L18.0528 14.7055L22.6768 10.2055L22.7548 10.1205C22.8662 9.98325 22.9392 9.81893 22.9665 9.64428C22.9937 9.46962 22.9742 9.29086 22.9099 9.12621C22.8455 8.96156 22.7387 8.81691 22.6003 8.70699C22.4618 8.59708 22.2967 8.52582 22.1218 8.50048L15.7418 7.57448L12.8898 1.79448C12.8072 1.62702 12.6795 1.486 12.521 1.38739C12.3624 1.28877 12.1795 1.23651 11.9928 1.23651C11.8061 1.23651 11.6231 1.28877 11.4646 1.38739C11.306 1.486 11.1783 1.62702 11.0958 1.79448L8.24277 7.57448Z" fill="#224159"/>
</g>
<defs>
<clipPath id="clip0_213_3243">
<rect width="24" height="24" fill="white" transform="translate(0 0.234467)"/>
</clipPath>
</defs>
</svg>
