<svg width="40" height="40" viewBox="0 0 40 40" fill="none" xmlns="http://www.w3.org/2000/svg">
<g clip-path="url(#clip0_201_3112)">
<path d="M8.33325 22.5C8.33325 23.163 8.59664 23.7989 9.06548 24.2678C9.53433 24.7366 10.1702 25 10.8333 25C11.4963 25 12.1322 24.7366 12.601 24.2678C13.0699 23.7989 13.3333 23.163 13.3333 22.5C13.3333 21.837 13.0699 21.2011 12.601 20.7322C12.1322 20.2634 11.4963 20 10.8333 20C10.1702 20 9.53433 20.2634 9.06548 20.7322C8.59664 21.2011 8.33325 21.837 8.33325 22.5Z" stroke="white" stroke-linecap="round" stroke-linejoin="round"/>
<path d="M26.6665 22.5C26.6665 23.163 26.9299 23.7989 27.3987 24.2678C27.8676 24.7366 28.5035 25 29.1665 25C29.8295 25 30.4654 24.7366 30.9343 24.2678C31.4031 23.7989 31.6665 23.163 31.6665 22.5C31.6665 21.837 31.4031 21.2011 30.9343 20.7322C30.4654 20.2634 29.8295 20 29.1665 20C28.5035 20 27.8676 20.2634 27.3987 20.7322C26.9299 21.2011 26.6665 21.837 26.6665 22.5Z" stroke="white" stroke-linecap="round" stroke-linejoin="round"/>
<path d="M29.1667 15C27.4655 15.0002 25.815 15.5787 24.4859 16.6406C23.1569 17.7025 22.2283 19.1846 21.8526 20.8438C21.477 22.503 21.6765 24.2406 22.4186 25.7714C23.1606 27.3022 24.401 28.5353 25.9362 29.2682C27.4713 30.0011 29.2101 30.1904 30.867 29.8049C32.5239 29.4194 34.0006 28.4821 35.0546 27.1468C36.1085 25.8114 36.6773 24.1575 36.6674 22.4563C36.6575 20.7552 36.0695 19.108 35 17.785L36.6667 15H29.1667Z" stroke="white" stroke-linecap="round" stroke-linejoin="round"/>
<path d="M10.8333 15C12.5345 15.0002 14.185 15.5787 15.5141 16.6406C16.8431 17.7025 17.7717 19.1846 18.1474 20.8438C18.523 22.503 18.3235 24.2406 17.5815 25.7714C16.8394 27.3022 15.599 28.5353 14.0638 29.2682C12.5287 30.0011 10.7899 30.1904 9.133 29.8049C7.47609 29.4194 5.99944 28.4821 4.94545 27.1468C3.89146 25.8114 3.32274 24.1575 3.33265 22.4563C3.34255 20.7552 3.93049 19.108 4.99996 17.785L3.33329 15H10.8333Z" stroke="white" stroke-linecap="round" stroke-linejoin="round"/>
<path d="M17.5 25.8335L20 29.1668L22.5 25.8335" stroke="white" stroke-linecap="round" stroke-linejoin="round"/>
<path d="M15 11.2498C18.3333 10.1381 21.6667 10.1381 25 11.2498" stroke="white" stroke-linecap="round" stroke-linejoin="round"/>
</g>
<defs>
<clipPath id="clip0_201_3112">
<rect width="40" height="40" fill="white"/>
</clipPath>
</defs>
</svg>
