<svg width="148" height="108" viewBox="0 0 148 108" fill="none" xmlns="http://www.w3.org/2000/svg">
<g clip-path="url(#clip0_91_220)">
<path d="M138.215 40.2903C131.202 46.3013 125.654 52.6946 119.617 58.9605C116.419 62.2707 111.717 68.437 105.429 70.3801C105.103 70.8549 104.532 71.2661 103.018 71.5428C102.138 71.6492 101.406 71.458 101.065 71.0329C99.0526 68.6025 98.4896 65.6545 97.7149 62.7632C79.4696 69.2014 56.2402 69.7445 39.9019 68.0537C21.9517 66.2785 6.50378 59.4424 3.64898 47.9413C3.51986 47.4594 4.09051 47.0482 4.69344 46.7576C5.2318 46.226 6.04646 45.8785 6.95796 45.8925C34.1662 49.1899 62.1102 50.9987 92.4287 39.6469L92.6401 39.5903C89.7983 36.6073 88.5218 32.6886 87.5533 29.0743C87.2628 27.9901 88.8598 27.1748 90.1622 26.9549C90.6683 26.3031 92.0536 25.5445 93.2736 25.863C109.024 28.7443 126.27 32.1286 138.007 38.6673C138.74 38.8587 138.966 39.702 138.215 40.2903ZM130.356 38.91C125.95 36.8626 120.581 35.4605 115.213 34.0583C107.893 32.1462 99.8544 30.943 92.7134 28.8537C93.5849 32.1064 94.2451 35.4158 95.5721 38.6757C95.669 39.0371 95.5218 39.3348 95.1306 39.5688C95.9595 40.1214 96.0059 41.1417 94.3767 41.8367C64.6754 53.7978 34.0756 53.0878 7.52094 48.8406C13.5376 58.5909 26.6783 63.5918 44.1724 65.3602C61.6666 67.1286 78.5051 63.9079 97.0371 60.2335L97.0048 60.113C96.5348 59.206 99.2551 58.348 99.9045 59.0778C99.9691 59.3187 100.213 59.3826 100.277 59.6235C101.645 59.6445 102.326 60.4948 101.364 61.1399C102.516 62.8972 103.244 64.768 104.184 66.582C104.281 66.9435 104.654 67.4891 105.028 68.0346C107.232 65.2491 111.406 62.1939 114.097 59.5358C119.269 54.2764 123.953 48.8895 129.337 43.5734C132.272 40.979 133.754 40.5818 130.356 38.91Z" fill="#FC832B"/>
</g>
<defs>
<clipPath id="clip0_91_220">
<rect width="132.652" height="75.4744" fill="white" transform="matrix(0.965926 -0.258819 -0.258819 -0.965926 19.5342 107.235)"/>
</clipPath>
</defs>
</svg>
