<?xml version="1.0" encoding="UTF-8" standalone="no"?>
<!DOCTYPE svg PUBLIC "-//W3C//DTD SVG 1.1//EN" "http://www.w3.org/Graphics/SVG/1.1/DTD/svg11.dtd">
<svg width="100%" height="100%" viewBox="0 0 1920 170" version="1.1" xmlns="http://www.w3.org/2000/svg" xmlns:xlink="http://www.w3.org/1999/xlink" xml:space="preserve" xmlns:serif="http://www.serif.com/" style="fill-rule:evenodd;clip-rule:evenodd;stroke-linejoin:round;stroke-miterlimit:2;">
    <g id="Artboard1" transform="matrix(1.00143,0,0,0.884474,-2.90205,-112.892)">
        <rect x="2.898" y="127.637" width="1917.27" height="192.205" style="fill:none;"/>
        <clipPath id="_clip1">
            <rect x="2.898" y="127.637" width="1917.27" height="192.205"/>
        </clipPath>
        <g clip-path="url(#_clip1)">
            <g transform="matrix(0.998576,0,0,1.13062,4.43877,-41.236)">
                <g transform="matrix(1.00011,0,0,0.530029,-1.12891,150.004)">
                    <clipPath id="_clip2">
                        <rect x="-0" y="-0" width="1920.92" height="312.686"/>
                    </clipPath>
                    <g clip-path="url(#_clip2)">
                        <path d="M0,64L45.733,106.713C91.467,148.87 182.667,235.13 274.667,277.287C365.733,320 457.333,320 548,298.713C640,276.87 732,235.13 822.667,218.713C914.267,203.13 1005.33,212.87 1097.33,229.287C1188.53,244.87 1280,267.13 1372,256C1462.8,244.87 1554.67,203.13 1645.33,176C1737.2,148.87 1828,139.13 1920,160C2011.47,180.87 2102.67,235.13 2194.67,261.287C2285.73,288 2377.33,288 2468,282.713C2560,276.87 2652,267.13 2742.67,250.713C2834.27,235.13 2925.33,212.87 3017.33,176C3108.53,139.13 3200,84.87 3292,96C3382.8,107.13 3474.67,180.87 3565.33,186.713C3657.2,192 3748,128 3840,112C3931.47,96 4022.67,128 4114.67,154.713C4205.73,180.87 4297.33,203.13 4388,229.287C4480,256 4572,288 4662.67,288C4754.27,288 4845.33,256 4937.33,229.287C5028.53,203.13 5120,180.87 5212,176C5302.8,171.13 5394.67,180.87 5485.33,160C5577.2,139.13 5668,84.87 5760,69.287C5851.47,52.87 5942.67,75.13 6034.67,122.713C6125.73,171.13 6217.33,244.87 6308,234.713C6400,224 6492,128 6537.33,80L6582.8,32L6582.8,-0L0,-0L0,64Z" style="fill:url(#_Linear3);fill-rule:nonzero;"/>
                    </g>
                </g>
                <g transform="matrix(1.00011,0,0,0.530029,-1.12891,150.367)">
                    <clipPath id="_clip4">
                        <rect x="0" y="0" width="1921.16" height="320"/>
                    </clipPath>
                    <g clip-path="url(#_clip4)">
                        <path d="M0,320L45.733,314.713C91.467,308.87 182.667,299.13 274.667,261.287C365.733,224 457.333,160 548,144C640,128 732,160 822.667,197.287C914.267,235.13 1005.33,276.87 1097.33,282.713C1188.53,288 1280,256 1372,213.287C1462.8,171.13 1554.67,116.87 1645.33,133.287C1737.2,148.87 1828,235.13 1920,261.287C2011.47,288 2102.67,256 2194.67,224C2285.73,192 2377.33,160 2468,160C2560,160 2652,192 2742.67,192C2834.27,192 2925.33,160 3017.33,128C3108.53,96 3200,64 3292,80C3382.8,96 3474.67,160 3565.33,181.287C3657.2,203.13 3748,180.87 3840,165.287C3931.47,148.87 4022.67,139.13 4114.67,122.713C4205.73,107.13 4297.33,84.87 4388,112C4480,139.13 4572,212.87 4662.67,256C4754.27,299.13 4845.33,308.87 4937.33,298.713C5028.53,288 5120,256 5212,224C5302.8,192 5394.67,160 5485.33,138.713C5577.2,116.87 5668,107.13 5760,128C5851.47,148.87 5942.67,203.13 6034.67,234.713C6125.73,267.13 6217.33,276.87 6308,250.713C6400,224 6492,160 6537.33,128L6582.8,96L6582.8,0L0,0L0,320Z" style="fill:url(#_Linear5);fill-rule:nonzero;"/>
                    </g>
                </g>
            </g>
        </g>
    </g>
    <defs>
        <linearGradient id="_Linear3" x1="0" y1="0" x2="1" y2="0" gradientUnits="userSpaceOnUse" gradientTransform="matrix(1.91465e-14,312.686,-312.686,1.91465e-14,0,-3.05176e-05)"><stop offset="0" style="stop-color:rgb(7,81,141);stop-opacity:1"/><stop offset="1" style="stop-color:rgb(93,169,233);stop-opacity:1"/></linearGradient>
        <linearGradient id="_Linear5" x1="0" y1="0" x2="1" y2="0" gradientUnits="userSpaceOnUse" gradientTransform="matrix(1.95943e-14,320,-320,1.95943e-14,0,0)"><stop offset="0" style="stop-color:rgb(7,81,141);stop-opacity:0.9"/><stop offset="1" style="stop-color:rgb(93,169,233);stop-opacity:0.9"/></linearGradient>
    </defs>
</svg>
