<svg viewBox="0 0 1920 320" fill="none" xmlns="http://www.w3.org/2000/svg">
<g clip-path="url(#clip0_10_60)">
<path d="M0 64L45.7333 106.713C91.4667 148.87 182.667 235.13 274.667 277.287C365.733 320 457.333 320 548 298.713C640 276.87 732 235.13 822.667 218.713C914.267 203.13 1005.33 212.87 1097.33 229.287C1188.53 244.87 1280 267.13 1372 256C1462.8 244.87 1554.67 203.13 1645.33 176C1737.2 148.87 1828 139.13 1920 160C2011.47 180.87 2102.67 235.13 2194.67 261.287C2285.73 288 2377.33 288 2468 282.713C2560 276.87 2652 267.13 2742.67 250.713C2834.27 235.13 2925.33 212.87 3017.33 176C3108.53 139.13 3200 84.8695 3292 96C3382.8 107.13 3474.67 180.87 3565.33 186.713C3657.2 192 3748 128 3840 112C3931.47 96 4022.67 128 4114.67 154.713C4205.73 180.87 4297.33 203.13 4388 229.287C4480 256 4572 288 4662.67 288C4754.27 288 4845.33 256 4937.33 229.287C5028.53 203.13 5120 180.87 5212 176C5302.8 171.13 5394.67 180.87 5485.33 160C5577.2 139.13 5668 84.8695 5760 69.2869C5851.47 52.8695 5942.67 75.1304 6034.67 122.713C6125.73 171.13 6217.33 244.87 6308 234.713C6400 224 6492 128 6537.33 80L6582.8 32V-3.05176e-05H6537.2C6491.47 -3.05176e-05 6400 -3.05176e-05 6308 -3.05176e-05C6217.2 -3.05176e-05 6125.33 -3.05176e-05 6034.67 -3.05176e-05C5942.8 -3.05176e-05 5852 -3.05176e-05 5760 -3.05176e-05C5668.53 -3.05176e-05 5577.33 -3.05176e-05 5485.33 -3.05176e-05C5394.27 -3.05176e-05 5302.67 -3.05176e-05 5212 -3.05176e-05C5120 -3.05176e-05 5028 -3.05176e-05 4937.33 -3.05176e-05C4845.73 -3.05176e-05 4754.67 -3.05176e-05 4662.67 -3.05176e-05C4571.47 -3.05176e-05 4480 -3.05176e-05 4388 -3.05176e-05C4297.2 -3.05176e-05 4205.33 -3.05176e-05 4114.67 -3.05176e-05C4022.8 -3.05176e-05 3932 -3.05176e-05 3840 -3.05176e-05C3748.53 -3.05176e-05 3657.33 -3.05176e-05 3565.33 -3.05176e-05C3474.27 -3.05176e-05 3382.67 -3.05176e-05 3292 -3.05176e-05C3200 -3.05176e-05 3108 -3.05176e-05 3017.33 -3.05176e-05C2925.73 -3.05176e-05 2834.67 -3.05176e-05 2742.67 -3.05176e-05C2651.47 -3.05176e-05 2560 -3.05176e-05 2468 -3.05176e-05C2377.2 -3.05176e-05 2285.33 -3.05176e-05 2194.67 -3.05176e-05C2102.8 -3.05176e-05 2012 -3.05176e-05 1920 -3.05176e-05C1828.53 -3.05176e-05 1737.33 -3.05176e-05 1645.33 -3.05176e-05C1554.27 -3.05176e-05 1462.67 -3.05176e-05 1372 -3.05176e-05C1280 -3.05176e-05 1188 -3.05176e-05 1097.33 -3.05176e-05C1005.73 -3.05176e-05 914.667 -3.05176e-05 822.667 -3.05176e-05C731.467 -3.05176e-05 640 -3.05176e-05 548 -3.05176e-05C457.2 -3.05176e-05 365.333 -3.05176e-05 274.667 -3.05176e-05C182.8 -3.05176e-05 92 -3.05176e-05 45.3333 -3.05176e-05H0V64Z" fill="url(#paint0_linear_10_60)"/>
<path opacity="0.9" d="M0 320L45.7333 314.713C91.4667 308.87 182.667 299.13 274.667 261.287C365.733 224 457.333 160 548 144C640 128 732 160 822.667 197.287C914.267 235.13 1005.33 276.87 1097.33 282.713C1188.53 288 1280 256 1372 213.287C1462.8 171.13 1554.67 116.87 1645.33 133.287C1737.2 148.87 1828 235.13 1920 261.287C2011.47 288 2102.67 256 2194.67 224C2285.73 192 2377.33 160 2468 160C2560 160 2652 192 2742.67 192C2834.27 192 2925.33 160 3017.33 128C3108.53 96 3200 64 3292 80C3382.8 96 3474.67 160 3565.33 181.287C3657.2 203.13 3748 180.87 3840 165.287C3931.47 148.87 4022.67 139.13 4114.67 122.713C4205.73 107.13 4297.33 84.8696 4388 112C4480 139.13 4572 212.87 4662.67 256C4754.27 299.13 4845.33 308.87 4937.33 298.713C5028.53 288 5120 256 5212 224C5302.8 192 5394.67 160 5485.33 138.713C5577.2 116.87 5668 107.13 5760 128C5851.47 148.87 5942.67 203.13 6034.67 234.713C6125.73 267.13 6217.33 276.87 6308 250.713C6400 224 6492 160 6537.33 128L6582.8 96V0H6537.2C6491.47 0 6400 0 6308 0C6217.2 0 6125.33 0 6034.67 0C5942.8 0 5852 0 5760 0C5668.53 0 5577.33 0 5485.33 0C5394.27 0 5302.67 0 5212 0C5120 0 5028 0 4937.33 0C4845.73 0 4754.67 0 4662.67 0C4571.47 0 4480 0 4388 0C4297.2 0 4205.33 0 4114.67 0C4022.8 0 3932 0 3840 0C3748.53 0 3657.33 0 3565.33 0C3474.27 0 3382.67 0 3292 0C3200 0 3108 0 3017.33 0C2925.73 0 2834.67 0 2742.67 0C2651.47 0 2560 0 2468 0C2377.2 0 2285.33 0 2194.67 0C2102.8 0 2012 0 1920 0C1828.53 0 1737.33 0 1645.33 0C1554.27 0 1462.67 0 1372 0C1280 0 1188 0 1097.33 0C1005.73 0 914.667 0 822.667 0C731.467 0 640 0 548 0C457.2 0 365.333 0 274.667 0C182.8 0 92 0 45.3333 0H0V320Z" fill="url(#paint1_linear_10_60)"/>
</g>
<defs>
<linearGradient id="paint0_linear_10_60" x1="0" y1="-3.05176e-05" x2="0" y2="312.686" gradientUnits="userSpaceOnUse">
<stop stop-color="#07518D"/>
<stop offset="1" stop-color="#5DA9E9"/>
</linearGradient>
<linearGradient id="paint1_linear_10_60" x1="0" y1="0" x2="0" y2="320" gradientUnits="userSpaceOnUse">
<stop stop-color="#07518D"/>
<stop offset="1" stop-color="#5DA9E9"/>
</linearGradient>
<clipPath id="clip0_10_60">
<rect width="1920" height="320" fill="white" transform="matrix(1 0 0 -1 0 320)"/>
</clipPath>
</defs>
</svg>
